<?xml version="1.0" encoding="UTF-8" standalone="no"?>
<!-- Created with Inkscape (http://www.inkscape.org/) -->

<svg
   xmlns:dc="http://purl.org/dc/elements/1.1/"
   xmlns:cc="http://creativecommons.org/ns#"
   xmlns:rdf="http://www.w3.org/1999/02/22-rdf-syntax-ns#"
   xmlns:svg="http://www.w3.org/2000/svg"
   xmlns="http://www.w3.org/2000/svg"
   xmlns:sodipodi="http://sodipodi.sourceforge.net/DTD/sodipodi-0.dtd"
   xmlns:inkscape="http://www.inkscape.org/namespaces/inkscape"
   width="209mm"
   height="70mm"
   viewBox="0 0 209 49.494949"
   version="1.1"
   id="svg8"
   inkscape:version="0.92.0 r15299"
   sodipodi:docname="icon_contactUs.svg">
  <defs
     id="defs2" />
  <sodipodi:namedview
     id="base"
     pagecolor="#272727"
     bordercolor="#666666"
     borderopacity="1.0"
     inkscape:pageopacity="1"
     inkscape:pageshadow="2"
     inkscape:zoom="1.979899"
     inkscape:cx="368.77803"
     inkscape:cy="137.74352"
     inkscape:document-units="mm"
     inkscape:current-layer="layer1"
     showgrid="false"
     inkscape:window-width="1920"
     inkscape:window-height="1017"
     inkscape:window-x="-8"
     inkscape:window-y="-8"
     inkscape:window-maximized="1"
     inkscape:pagecheckerboard="false"
     viewbox-width="250"
     viewbox-height="250"
     scale-x="1" />
  <metadata
     id="metadata5">
    <rdf:RDF>
      <cc:Work
         rdf:about="">
        <dc:format>image/svg+xml</dc:format>
        <dc:type
           rdf:resource="http://purl.org/dc/dcmitype/StillImage" />
        <dc:title></dc:title>
      </cc:Work>
    </rdf:RDF>
  </metadata>
  <g
     inkscape:label="Layer 1"
     inkscape:groupmode="layer"
     id="layer1"
     transform="translate(0,-227)">
    <rect
       style="opacity:1;fill:#ffffff;fill-opacity:1;stroke:none;stroke-width:1.47552204;stroke-linecap:butt;stroke-linejoin:round;stroke-miterlimit:4;stroke-dasharray:none;stroke-opacity:1"
       id="rect4716"
       width="8.6578321"
       height="1.8683213"
       x="-62.025402"
       y="156.00502"
       ry="0.93416065"
       transform="matrix(0.90694821,-0.42124214,0.42011574,0.90747053,0,0)" />
    <path
       style="fill:#ffffff;fill-opacity:1;stroke:#000000;stroke-width:1.34131575;stroke-miterlimit:4;stroke-dasharray:none;stroke-opacity:1"
       d="m 10.478493,168.73658 -0.6149796,0.28178 v 0 c 0.004,0.008 0.007,0.0166 0.0107,0.0249 l 11.9463806,26.07268 c 1.00826,2.2005 3.59157,3.16035 5.79208,2.15209 2.2005,-1.00826 3.16015,-3.59148 2.15189,-5.79199 L 17.818183,165.40336 c -0.004,-0.008 -0.008,-0.0161 -0.0119,-0.0243 l -0.61065,0.27979"
       id="path4546"
       inkscape:connector-curvature="0" />
    <path
       style="fill:#000000;fill-opacity:1;stroke:none;stroke-width:0.84186113;stroke-miterlimit:4;stroke-dasharray:none;stroke-opacity:1"
       d="m 14.319463,173.59898 c 0.007,0.0148 0.0127,0.0297 0.0195,0.0446 l 9.008031,19.65979 c 0.76027,1.65928 2.28852,2.57542 3.42666,2.05394 l 0.0414,-0.019 c 1.13813,-0.52149 1.44236,-2.27728 0.68209,-3.93655 l -8.042641,-17.5528 c -0.007,-0.0148 -0.0142,-0.0291 -0.021,-0.0439 z"
       id="rect3680-1"
       inkscape:connector-curvature="0"
       sodipodi:nodetypes="csssssscc" />
    <path
       style="fill:#ffffff;fill-opacity:1;stroke:#000000;stroke-width:1.34399998;stroke-miterlimit:4;stroke-dasharray:none;stroke-opacity:1"
       d="m 9.9505034,167.58433 -1.00667,0.46125 c -0.71814,0.32905 -1.56118,0.0158 -1.89023,-0.70233 -0.32905,-0.71814 -0.0158,-1.56118 0.70233,-1.89023 v 0 l 8.7666296,-4.01683 c 0.71814,-0.32905 1.56118,-0.0158 1.89023,0.70233 0.32905,0.71814 0.0158,1.56118 -0.70233,1.89023 l -1.04271,0.47776"
       id="path4557"
       inkscape:connector-curvature="0" />
    <path
       style="fill:#000000;fill-opacity:1;stroke:none;stroke-width:1.34424984;stroke-miterlimit:4;stroke-dasharray:none;stroke-opacity:1"
       d="m 9.0234534,159.9055 2.7366296,-1.25392 c 0.71815,-0.32905 1.71313,-0.0675 1.89026,0.70235 l 1.14264,4.96602 c 0.17506,0.76083 0.21504,1.46992 -0.25564,1.68558 l -1.79361,0.82182 c -0.47068,0.21567 -0.98229,-0.26838 -1.44356,-0.90701 l -2.9790596,-4.12458 c -0.46253,-0.64038 -0.0158,-1.56121 0.70234,-1.89026 z"
       id="rect4559"
       inkscape:connector-curvature="0"
       sodipodi:nodetypes="sssssssss" />
    <path
       style="fill:#000000;fill-opacity:1;stroke:none;stroke-width:2.00844264;stroke-miterlimit:4;stroke-dasharray:none;stroke-opacity:1"
       d="m -170.88324,342.85335 c -3.8e-4,0.0388 -0.002,0.0771 -0.002,0.11603 v 51.59178 c 0,4.35431 2.40417,7.86006 5.39088,7.86006 h 0.10852 c 2.98672,0 5.39141,-3.50575 5.39141,-7.86006 v -51.5918 c 0,-0.0389 -0.002,-0.0771 -0.002,-0.11603 z"
       id="rect3680-1-1"
       inkscape:connector-curvature="0" />
    <path
       inkscape:connector-curvature="0"
       style="fill:none;stroke:#000000;stroke-width:3.20000005;stroke-miterlimit:4;stroke-dasharray:none;stroke-opacity:1"
       d="m -219.85173,320.40293 h -1.61385 v 0 c -1.4e-4,0.0216 -0.002,0.0429 -0.002,0.0646 v 68.42064 c 0,5.77462 4.64902,10.42365 10.42365,10.42365 5.77462,0 10.42313,-4.64903 10.42313,-10.42365 v -68.42064 c 0,-0.0216 -0.001,-0.043 -0.002,-0.0646 h -1.60248"
       id="path4546-0" />
    <path
       style="fill:#000000;fill-opacity:1;stroke:none;stroke-width:2.00844264;stroke-miterlimit:4;stroke-dasharray:none;stroke-opacity:1"
       d="m -216.35324,334.76596 c -3.7e-4,0.0388 -0.002,0.0771 -0.002,0.11603 v 51.59178 c 0,4.3543 2.40417,7.86006 5.39088,7.86006 h 0.10852 c 2.98672,0 5.39141,-3.50576 5.39141,-7.86006 v -46.06266 c 0,-0.0389 -0.002,-0.0771 -0.002,-0.11603 z"
       id="rect3680-1-7"
       inkscape:connector-curvature="0"
       sodipodi:nodetypes="csssssscc" />
    <path
       inkscape:connector-curvature="0"
       style="fill:none;fill-opacity:1;stroke:#000000;stroke-width:3.20700002;stroke-miterlimit:4;stroke-dasharray:none;stroke-opacity:1"
       d="m -219.85182,317.37912 h -2.64174 c -1.88455,0 -3.40173,-1.51717 -3.40173,-3.40173 0,-1.88456 1.51718,-3.40173 3.40173,-3.40173 v 0 h 23.00564 c 1.88456,0 3.40173,1.51717 3.40173,3.40173 0,1.88456 -1.51717,3.40173 -3.40173,3.40173 h -2.7363"
       id="path4557-0" />
    <path
       style="fill:#000000;fill-opacity:1;stroke:none;stroke-width:3.20700002;stroke-miterlimit:4;stroke-dasharray:none;stroke-opacity:1"
       d="m -214.23146,299.80334 h 7.18154 c 1.88459,0 3.78265,1.55609 3.40179,3.40179 l -2.45685,11.90625 c -0.3764,1.82414 -0.99438,3.40179 -2.22955,3.40179 h -4.70682 c -1.23517,0 -1.86377,-1.55827 -2.22955,-3.40179 l -2.36235,-11.90625 c -0.36678,-1.84855 1.5172,-3.40179 3.40179,-3.40179 z"
       id="rect4559-8"
       inkscape:connector-curvature="0"
       sodipodi:nodetypes="sssssssss" />
    <flowRoot
       xml:space="preserve"
       id="flowRoot4601"
       style="font-style:normal;font-weight:normal;font-size:40px;line-height:25px;font-family:sans-serif;letter-spacing:0px;word-spacing:0px;opacity:1;fill:#000000;fill-opacity:1;stroke:#000000;stroke-width:4.4031496;stroke-linecap:butt;stroke-linejoin:round;stroke-miterlimit:4;stroke-dasharray:none;stroke-opacity:1"
       transform="matrix(0.26458333,0,0,0.26458333,-42.213177,162.40633)"><flowRegion
         id="flowRegion4603"
         style="stroke:#000000;stroke-width:4.4031496;stroke-linecap:butt;stroke-linejoin:round;stroke-miterlimit:4;stroke-dasharray:none;stroke-opacity:1"><rect
           id="rect4605"
           width="739.2749"
           height="58.655525"
           x="277.14285"
           y="45.376827"
           style="stroke:#000000;stroke-width:4.4031496;stroke-linecap:butt;stroke-linejoin:round;stroke-miterlimit:4;stroke-dasharray:none;stroke-opacity:1" /></flowRegion><flowPara
         id="flowPara4607"
         style="font-style:normal;font-variant:normal;font-weight:normal;font-stretch:normal;font-size:74.66666412px;line-height:19.5px;font-family:'Infinium Guardian';-inkscape-font-specification:'Infinium Guardian';fill:#ffffff;fill-opacity:1;stroke:#000000;stroke-width:4.4031496;stroke-linecap:butt;stroke-linejoin:round;stroke-miterlimit:4;stroke-dasharray:none;stroke-opacity:1">TUTORIALS</flowPara></flowRoot>    <path
       style="opacity:1;fill:#ffffff;fill-opacity:1;stroke:#000000;stroke-width:2.17499995;stroke-linecap:butt;stroke-linejoin:round;stroke-miterlimit:4;stroke-dasharray:none;stroke-opacity:1"
       d="m 24.654787,102.51416 c 2.80534,-0.84767 6.19658,0.63015 6.59388,3.5337 l 3.06245,22.38118 c 0.1702,1.24384 -0.31202,2.46158 -1.51377,2.8247 -1.20176,0.36313 -2.32973,-0.36005 -2.8247,-1.51377 l -8.85156,-20.63193 c -1.15545,-2.69322 0.72836,-5.74621 3.5337,-6.59388 z"
       id="rect4645"
       inkscape:connector-curvature="0"
       sodipodi:nodetypes="sssssss" />
    <circle
       style="opacity:1;fill:#ffffff;fill-opacity:1;stroke:#000000;stroke-width:2.17499995;stroke-linecap:butt;stroke-linejoin:round;stroke-miterlimit:4;stroke-dasharray:none;stroke-opacity:1"
       id="path4648"
       cx="-6.45186"
       cy="143.45555"
       r="3.6749561"
       transform="rotate(-16.812852)" />
    <path
       style="opacity:1;fill:none;fill-opacity:1;stroke:#000000;stroke-width:1.1750567;stroke-linecap:butt;stroke-linejoin:round;stroke-miterlimit:4;stroke-dasharray:none;stroke-opacity:1"
       d="m -173.88873,236.95088 c 2.93061,0 5.74944,2.39555 5.28991,5.28991 l -3.54214,22.31029 c -0.19685,1.23989 -1.01068,2.2661 -2.2661,2.2661 -1.25542,0 -2.126,-1.01852 -2.2661,-2.2661 l -2.50548,-22.31029 c -0.32706,-2.91231 2.3593,-5.28991 5.28991,-5.28991 z"
       id="rect4645-7"
       inkscape:connector-curvature="0"
       sodipodi:nodetypes="sssssss" />
    <circle
       style="opacity:1;fill:none;fill-opacity:1;stroke:#000000;stroke-width:1.06500006;stroke-linecap:butt;stroke-linejoin:round;stroke-miterlimit:4;stroke-dasharray:none;stroke-opacity:1"
       id="path4648-7"
       cx="-174.28964"
       cy="275.14294"
       r="3.6749561" />
    <flowRoot
       xml:space="preserve"
       id="flowRoot4601-9"
       style="font-style:normal;font-weight:normal;font-size:40px;line-height:25px;font-family:sans-serif;letter-spacing:0px;word-spacing:0px;opacity:1;fill:#000000;fill-opacity:1;stroke:#000000;stroke-width:4.4031496;stroke-linecap:butt;stroke-linejoin:round;stroke-miterlimit:4;stroke-dasharray:none;stroke-opacity:1"
       transform="matrix(0.26458333,0,0,0.26458333,-28.762082,107.87525)"><flowRegion
         id="flowRegion4603-0"
         style="stroke:#000000;stroke-width:4.4031496;stroke-linecap:butt;stroke-linejoin:round;stroke-miterlimit:4;stroke-dasharray:none;stroke-opacity:1"><rect
           id="rect4605-5"
           width="739.2749"
           height="58.655525"
           x="277.14285"
           y="45.376827"
           style="stroke:#000000;stroke-width:4.4031496;stroke-linecap:butt;stroke-linejoin:round;stroke-miterlimit:4;stroke-dasharray:none;stroke-opacity:1" /></flowRegion><flowPara
         id="flowPara4607-4"
         style="font-style:normal;font-variant:normal;font-weight:normal;font-stretch:normal;font-size:74.66666412px;line-height:19.5px;font-family:'Infinium Guardian';-inkscape-font-specification:'Infinium Guardian';fill:#ffffff;fill-opacity:1;stroke:#000000;stroke-width:4.4031496;stroke-linecap:butt;stroke-linejoin:round;stroke-miterlimit:4;stroke-dasharray:none;stroke-opacity:1">NEWS</flowPara></flowRoot>    <rect
       style="opacity:1;fill:#ffffff;fill-opacity:1;stroke:#000000;stroke-width:2.17499995;stroke-linecap:butt;stroke-linejoin:round;stroke-miterlimit:4;stroke-dasharray:none;stroke-opacity:1"
       id="rect4718"
       width="41.904884"
       height="21.239462"
       x="15.922385"
       y="242.01468"
       ry="1.4341789" />
    <path
       style="opacity:1;fill:#ffffff;fill-opacity:1;stroke:#000000;stroke-width:2.17499995;stroke-linecap:butt;stroke-linejoin:round;stroke-miterlimit:4;stroke-dasharray:none;stroke-opacity:1"
       inkscape:transform-center-y="0.68061002"
       d="m 37.640222,254.31746 -20.04226,-12.35061 h 38.60158 z"
       id="path4722"
       inkscape:connector-curvature="0"
       sodipodi:nodetypes="cccc" />
    <g
       aria-label="CONTACT US"
       transform="matrix(0.26458333,0,0,0.26458333,-8.8055278,239.09259)"
       style="font-style:normal;font-weight:normal;font-size:40px;line-height:25px;font-family:sans-serif;letter-spacing:0px;word-spacing:0px;opacity:1;fill:#000000;fill-opacity:1;stroke:#000000;stroke-width:4.4031496;stroke-linecap:butt;stroke-linejoin:round;stroke-miterlimit:4;stroke-dasharray:none;stroke-opacity:1"
       id="flowRoot4601-3">
      <path
         d="m 326.36133,72.64345 q -2.00521,0.875 -3.64584,1.640625 -1.60416,0.765625 -4.22916,1.604166 -2.22396,0.692709 -4.84896,1.166667 -2.58854,0.510417 -5.72396,0.510417 -5.90625,0 -10.75521,-1.640625 -4.8125,-1.677084 -8.38541,-5.213542 -3.5,-3.463541 -5.46875,-8.786458 -1.96875,-5.359375 -1.96875,-12.432291 0,-6.708333 1.89583,-11.994791 1.89583,-5.286458 5.46875,-8.932292 3.46354,-3.536458 8.34896,-5.395833 4.92187,-1.859375 10.90104,-1.859375 4.375,0 8.71354,1.057292 4.375,1.057291 9.69792,3.71875 v 8.567708 h -0.54688 q -4.48437,-3.755208 -8.89583,-5.46875 -4.41146,-1.713542 -9.44271,-1.713542 -4.11979,0 -7.4375,1.348959 -3.28125,1.3125 -5.86979,4.119791 -2.51563,2.734375 -3.9375,6.927083 -1.38542,4.15625 -1.38542,9.625 0,5.723958 1.53125,9.84375 1.56771,4.119791 4.01042,6.708333 2.55208,2.697916 5.94271,4.010416 3.42708,1.276042 7.21875,1.276042 5.21354,0 9.77083,-1.786458 4.55729,-1.786459 8.53125,-5.359375 h 0.51042 z"
         style="font-style:normal;font-variant:normal;font-weight:normal;font-stretch:normal;font-size:74.66666412px;line-height:19.5px;font-family:'Infinium Guardian';-inkscape-font-specification:'Infinium Guardian';fill:#ffffff;fill-opacity:1;stroke:#000000;stroke-width:4.4031496;stroke-linecap:butt;stroke-linejoin:round;stroke-miterlimit:4;stroke-dasharray:none;stroke-opacity:1"
         id="path3911" />
      <path
         d="m 377.11133,28.528868 q 3.3177,3.645833 5.0677,8.932291 1.78646,5.286459 1.78646,11.994792 0,6.708333 -1.82291,12.031249 -1.78646,5.286458 -5.03125,8.822917 -3.35417,3.682291 -7.94792,5.541666 -4.55729,1.859375 -10.42708,1.859375 -5.72396,0 -10.42709,-1.895833 -4.66666,-1.895834 -7.94791,-5.505208 -3.28125,-3.609375 -5.06771,-8.859375 -1.75,-5.25 -1.75,-11.994791 0,-6.635417 1.75,-11.885417 1.75,-5.286458 5.10416,-9.041666 3.20834,-3.572917 7.94792,-5.46875 4.77604,-1.895833 10.39063,-1.895833 5.83333,0 10.46354,1.932292 4.66666,1.895833 7.91146,5.432291 z m -0.65625,20.927083 q 0,-10.572917 -4.73959,-16.296875 -4.73958,-5.760416 -12.94271,-5.760416 -8.27604,0 -13.01562,5.760416 -4.70313,5.723958 -4.70313,16.296875 0,10.682291 4.8125,16.369791 4.8125,5.651041 12.90625,5.651041 8.09375,0 12.8698,-5.651041 4.8125,-5.6875 4.8125,-16.369791 z"
         style="font-style:normal;font-variant:normal;font-weight:normal;font-stretch:normal;font-size:74.66666412px;line-height:19.5px;font-family:'Infinium Guardian';-inkscape-font-specification:'Infinium Guardian';fill:#ffffff;fill-opacity:1;stroke:#000000;stroke-width:4.4031496;stroke-linecap:butt;stroke-linejoin:round;stroke-miterlimit:4;stroke-dasharray:none;stroke-opacity:1"
         id="path3913" />
      <path
         d="m 436.83007,76.58095 h -8.93229 L 402.1582,28.018451 V 76.58095 h -6.74479 V 22.294493 h 11.19271 l 23.47916,44.333332 V 22.294493 h 6.74479 z"
         style="font-style:normal;font-variant:normal;font-weight:normal;font-stretch:normal;font-size:74.66666412px;line-height:19.5px;font-family:'Infinium Guardian';-inkscape-font-specification:'Infinium Guardian';fill:#ffffff;fill-opacity:1;stroke:#000000;stroke-width:4.4031496;stroke-linecap:butt;stroke-linejoin:round;stroke-miterlimit:4;stroke-dasharray:none;stroke-opacity:1"
         id="path3915" />
      <path
         d="m 489.98632,28.71116 h -19.39583 v 47.86979 h -7.21875 V 28.71116 h -19.39583 v -6.416667 h 46.01041 z"
         style="font-style:normal;font-variant:normal;font-weight:normal;font-stretch:normal;font-size:74.66666412px;line-height:19.5px;font-family:'Infinium Guardian';-inkscape-font-specification:'Infinium Guardian';fill:#ffffff;fill-opacity:1;stroke:#000000;stroke-width:4.4031496;stroke-linecap:butt;stroke-linejoin:round;stroke-miterlimit:4;stroke-dasharray:none;stroke-opacity:1"
         id="path3917" />
      <path
         d="m 535.77798,76.58095 h -7.69271 l -5.32291,-15.130208 h -23.47917 l -5.32291,15.130208 h -7.32813 l 19.76042,-54.286457 h 9.625 z m -15.23958,-21.328125 -9.51562,-26.65104 -9.55209,26.65104 z"
         style="font-style:normal;font-variant:normal;font-weight:normal;font-stretch:normal;font-size:74.66666412px;line-height:19.5px;font-family:'Infinium Guardian';-inkscape-font-specification:'Infinium Guardian';fill:#ffffff;fill-opacity:1;stroke:#000000;stroke-width:4.4031496;stroke-linecap:butt;stroke-linejoin:round;stroke-miterlimit:4;stroke-dasharray:none;stroke-opacity:1"
         id="path3919" />
      <path
         d="m 585.94464,72.64345 q -2.00521,0.875 -3.64583,1.640625 -1.60417,0.765625 -4.22917,1.604166 -2.22396,0.692709 -4.84896,1.166667 -2.58854,0.510417 -5.72396,0.510417 -5.90625,0 -10.7552,-1.640625 -4.8125,-1.677084 -8.38542,-5.213542 -3.5,-3.463541 -5.46875,-8.786458 -1.96875,-5.359375 -1.96875,-12.432291 0,-6.708333 1.89583,-11.994791 1.89584,-5.286458 5.46875,-8.932292 3.46354,-3.536458 8.34896,-5.395833 4.92188,-1.859375 10.90104,-1.859375 4.375,0 8.71354,1.057292 4.375,1.057291 9.69792,3.71875 v 8.567708 h -0.54688 q -4.48437,-3.755208 -8.89583,-5.46875 -4.41146,-1.713542 -9.44271,-1.713542 -4.11979,0 -7.4375,1.348959 -3.28125,1.3125 -5.86979,4.119791 -2.51562,2.734375 -3.9375,6.927083 -1.38541,4.15625 -1.38541,9.625 0,5.723958 1.53125,9.84375 1.5677,4.119791 4.01041,6.708333 2.55209,2.697916 5.94271,4.010416 3.42708,1.276042 7.21875,1.276042 5.21354,0 9.77083,-1.786458 4.55729,-1.786459 8.53125,-5.359375 h 0.51042 z"
         style="font-style:normal;font-variant:normal;font-weight:normal;font-stretch:normal;font-size:74.66666412px;line-height:19.5px;font-family:'Infinium Guardian';-inkscape-font-specification:'Infinium Guardian';fill:#ffffff;fill-opacity:1;stroke:#000000;stroke-width:4.4031496;stroke-linecap:butt;stroke-linejoin:round;stroke-miterlimit:4;stroke-dasharray:none;stroke-opacity:1"
         id="path3921" />
      <path
         d="m 634.94465,28.71116 h -19.39583 v 47.86979 h -7.21875 V 28.71116 h -19.39584 v -6.416667 h 46.01042 z"
         style="font-style:normal;font-variant:normal;font-weight:normal;font-stretch:normal;font-size:74.66666412px;line-height:19.5px;font-family:'Infinium Guardian';-inkscape-font-specification:'Infinium Guardian';fill:#ffffff;fill-opacity:1;stroke:#000000;stroke-width:4.4031496;stroke-linecap:butt;stroke-linejoin:round;stroke-miterlimit:4;stroke-dasharray:none;stroke-opacity:1"
         id="path3923" />
      <path
         d="m 709.42903,54.778867 q 0,5.90625 -1.3125,10.317708 -1.27604,4.375 -4.22916,7.291666 -2.80729,2.770834 -6.5625,4.046875 -3.75521,1.276042 -8.75,1.276042 -5.10417,0 -8.89583,-1.348958 -3.79167,-1.348959 -6.38021,-3.973959 -2.95313,-2.989583 -4.26563,-7.218749 -1.27604,-4.229167 -1.27604,-10.390625 V 22.294493 h 7.21875 V 55.14345 q 0,4.411459 0.58333,6.963542 0.6198,2.552083 2.04167,4.630208 1.60417,2.369792 4.33854,3.572917 2.77084,1.203125 6.63542,1.203125 3.90104,0 6.63542,-1.166667 2.73437,-1.203125 4.375,-3.609375 1.42187,-2.078125 2.0052,-4.739583 0.6198,-2.697917 0.6198,-6.671875 V 22.294493 h 7.21874 z"
         style="font-style:normal;font-variant:normal;font-weight:normal;font-stretch:normal;font-size:74.66666412px;line-height:19.5px;font-family:'Infinium Guardian';-inkscape-font-specification:'Infinium Guardian';fill:#ffffff;fill-opacity:1;stroke:#000000;stroke-width:4.4031496;stroke-linecap:butt;stroke-linejoin:round;stroke-miterlimit:4;stroke-dasharray:none;stroke-opacity:1"
         id="path3925" />
      <path
         d="m 762.69466,61.086159 q 0,3.171874 -1.49479,6.270833 -1.45834,3.098958 -4.11979,5.249999 -2.91667,2.333334 -6.81771,3.645834 -3.86458,1.3125 -9.33333,1.3125 -5.8698,0 -10.57292,-1.09375 -4.66667,-1.09375 -9.51563,-3.244792 v -9.041666 h 0.51042 q 4.11979,3.427083 9.51563,5.286458 5.39583,1.859375 10.13541,1.859375 6.70834,0 10.42709,-2.515625 3.7552,-2.515625 3.7552,-6.708333 0,-3.609375 -1.78645,-5.322917 -1.75,-1.713541 -5.35938,-2.661458 -2.73437,-0.729167 -5.94271,-1.203125 -3.17187,-0.473958 -6.74479,-1.203125 -7.21875,-1.53125 -10.71875,-5.213541 -3.46354,-3.71875 -3.46354,-9.661458 0,-6.817708 5.76042,-11.15625 5.76041,-4.375 14.61979,-4.375 5.72396,0 10.5,1.09375 4.77604,1.09375 8.45833,2.697917 v 8.531249 h -0.51042 q -3.09895,-2.624999 -8.16666,-4.338541 -5.03125,-1.75 -10.31771,-1.75 -5.79688,0 -9.33333,2.40625 -3.5,2.40625 -3.5,6.197916 0,3.390625 1.75,5.322917 1.75,1.932291 6.16145,2.953125 2.33334,0.510416 6.63542,1.239583 4.30208,0.729167 7.29167,1.494792 6.05208,1.604166 9.11458,4.848958 3.0625,3.244791 3.0625,9.078125 z"
         style="font-style:normal;font-variant:normal;font-weight:normal;font-stretch:normal;font-size:74.66666412px;line-height:19.5px;font-family:'Infinium Guardian';-inkscape-font-specification:'Infinium Guardian';fill:#ffffff;fill-opacity:1;stroke:#000000;stroke-width:4.4031496;stroke-linecap:butt;stroke-linejoin:round;stroke-miterlimit:4;stroke-dasharray:none;stroke-opacity:1"
         id="path3927" />
    </g>
    <rect
       style="opacity:1;fill:#ffffff;fill-opacity:1;stroke:#000000;stroke-width:2.17499995;stroke-linecap:butt;stroke-linejoin:round;stroke-miterlimit:4;stroke-dasharray:none;stroke-opacity:1"
       id="rect4718-3"
       width="41.904884"
       height="21.239462"
       x="11.677112"
       y="324.79471"
       ry="1.4341789" />
    <path
       style="opacity:1;fill:#ffffff;fill-opacity:1;stroke:#000000;stroke-width:2.17499995;stroke-linecap:butt;stroke-linejoin:round;stroke-miterlimit:4;stroke-dasharray:none;stroke-opacity:1"
       inkscape:transform-center-y="0.68061002"
       d="M 33.394949,337.0975 13.352689,324.74689 H 51.954268 Z"
       id="path4722-4"
       inkscape:connector-curvature="0"
       sodipodi:nodetypes="cccc" />
    <flowRoot
       xml:space="preserve"
       id="flowRoot4601-3-7"
       style="font-style:normal;font-weight:normal;font-size:40px;line-height:25px;font-family:sans-serif;letter-spacing:0px;word-spacing:0px;opacity:1;fill:#000000;fill-opacity:1;stroke:#000000;stroke-width:4.4031496;stroke-linecap:butt;stroke-linejoin:round;stroke-miterlimit:4;stroke-dasharray:none;stroke-opacity:1"
       transform="matrix(0.26458333,0,0,0.26458333,-13.050801,321.87262)"><flowRegion
         id="flowRegion4603-6-8"
         style="stroke:#000000;stroke-width:4.4031496;stroke-linecap:butt;stroke-linejoin:round;stroke-miterlimit:4;stroke-dasharray:none;stroke-opacity:1"><rect
           id="rect4605-1-6"
           width="739.2749"
           height="58.655525"
           x="277.14285"
           y="45.376827"
           style="stroke:#000000;stroke-width:4.4031496;stroke-linecap:butt;stroke-linejoin:round;stroke-miterlimit:4;stroke-dasharray:none;stroke-opacity:1" /></flowRegion><flowPara
         id="flowPara4607-5-1"
         style="font-style:normal;font-variant:normal;font-weight:normal;font-stretch:normal;font-size:74.66666412px;line-height:19.5px;font-family:'Infinium Guardian';-inkscape-font-specification:'Infinium Guardian';fill:#ffffff;fill-opacity:1;stroke:#000000;stroke-width:4.4031496;stroke-linecap:butt;stroke-linejoin:round;stroke-miterlimit:4;stroke-dasharray:none;stroke-opacity:1">CONTACT US</flowPara></flowRoot>  </g>
</svg>
